<?xml version="1.0" encoding="UTF-8"?>
<svg id="_레이어_1" data-name="레이어 1" xmlns="http://www.w3.org/2000/svg" viewBox="0 0 431.17 303.29">
  <defs>
    <style>
      .cls-1, .cls-2 {
        fill: #040000;
      }

      .cls-2 {
        fill-rule: evenodd;
      }
    </style>
  </defs>
  <polygon class="cls-1" points="341.47 179.14 356.81 107 427.99 107 426.15 115.65 382.39 115.65 370.73 170.49 415.96 170.49 414.12 179.14 341.47 179.14"/>
  <polygon class="cls-1" points="307.59 179.14 316.03 139.44 308.43 139.44 299.99 179.14 281.44 179.14 296.78 107 315.33 107 309.93 132.39 317.53 132.39 322.92 107 341.47 107 326.14 179.14 307.59 179.14"/>
  <polygon class="cls-1" points="257.55 159.99 246.38 159.99 251.04 138.08 262.21 138.08 263.71 131.03 252.54 131.03 257.71 107 238.94 107 226.11 167.04 256.05 167.04 257.55 159.99"/>
  <polygon class="cls-1" points="337.12 197.1 334.82 207.93 428.87 207.93 431.17 197.1 337.12 197.1"/>
  <polygon class="cls-1" points="331.76 197.1 247.92 197.1 245.62 207.93 329.46 207.93 331.76 197.1"/>
  <path class="cls-2" d="m285.42,52.26c-1.49-7.19-3.83-14.12-6.27-21.02-1.89-5.35-4.58-10.27-7.91-14.86C262.83,4.77,251.42-.74,237.04.08c-7.92.45-15.4,2.68-22.52,6.26-6.99,3.52-13.16,8.09-18.79,13.48-14.88,14.25-26.14,30.98-34.48,49.7-4.44,9.98-10.31,32.39-13.48,42.83-.23.76-.46,1.53-.69,2.29h15.62c-.19.88,2.18-7.85,6.83-24.28,1.79-6.32,3.61-11.97,6.32-17.95,4.55-10.01,8.96-16.02,15.64-24.79,5.74-7.54,12.2-14.38,19.95-19.9,6.28-4.47,13.14-7.61,20.88-8.56,6.67-.82,12.47,1.02,17.17,5.85,5.15,5.29,8.39,11.72,10.77,18.6.94,2.72,1.68,5.52,2.35,8.33,1.14,4.78,2.1,9.59,2.7,14.47.89,7.33,1.06,14.69.94,22.06-.22,13.94-1.6,27.78-3.58,41.58-1.82,12.72-3.69,22.93-7.72,37.01h22.19c6.69-26.34,10.47-53.11,11.17-80.31.3-11.6-.55-23.09-2.89-34.47Z"/>
  <g>
    <path class="cls-2" d="m8.86,171.94h8.87c-2.77,9.94-5.53,19.84-8.33,29.89H0"/>
    <path class="cls-2" d="m169.62,208.43h-22.6c1.35-6.37,2.72-12.79,4.22-19.85-12.73,6.35-24.56,12.25-37.03,18.47-1.73-6.19-3.29-11.78-4.74-16.97,12.38-4.57,24.47-9.03,36.56-13.49-.05-.54-.1-1.08-.16-1.62h-24.77c2.9-13.65,5.73-26.96,8.63-40.6h32.45c.29-1.36,1.45-6.39,1.75-7.83h-37.42c1.18-5.56.28-3.38,1.42-8.77h37.02c.58-2.24,2.23-7.86,2.87-10.35h23.07c-.47,2.21-1.98,7.68-2.5,10.12h39.53c-1.15,5.39-.22,3.11-1.35,8.44h-39.17c-.34,1.59-1.56,6.91-1.92,8.62h31.88c-2.99,14.07-5.78,27.2-8.54,40.19h-25.1c-.2.39-.4.78-.6,1.17,10.24,4.66,20.49,9.32,30.91,14.05-3.51,5.3-7.11,10.73-11.33,17.09-9.68-6.24-19.12-12.33-28.86-18.61-1.42,6.69-2.8,13.16-4.24,19.93Zm14.25-64.38c-.75,3.53-4.99,19-5.66,22.14h12.22c.73-3.42,4.99-19.03,5.66-22.14h-12.22Zm-28.83,21.79c.7-3.32,4.94-18.8,5.61-21.93h-11.79c-.69,3.25-4.93,18.74-5.61,21.93h11.79Z"/>
    <path class="cls-2" d="m11.35,150.76c3.27-.06,9.81-.14,13.97-.14-3.69-4.51-7.17-7.99-10.11-12.12-.68-.95-1.01-3.53-.19-4.67,8.41-8.85,14.04-17.31,19.94-28.05,3.48,1.8,8.72,2.53,13.16,4.83-7.02,10.66-10.82,15.54-14.82,21.13.49.33,1.74,2.18,2.39,1.94,4.1-5.03,6.77-8.71,11.03-14.63,2.99,1.52,6.35,2.74,10.15,4.68-3.38,5.54-7.24,11.08-10.7,16.75,2.47,0,5.35-.21,8.08-.21-1.56,9.61-3.08,18.92-4.64,28.54h-9.25c-.16-.53,1.33-6.49,1.07-7.36h-2.31c-2.99,14.08-7.68,33.21-10.69,47.37H12.12c3.01-14.15,7.72-33.41,10.81-47.91h-13.08m32.98-10.91c.31-2,.56-3.69,1.05-6.83-2.35,3.1-3.63,4.79-5.18,6.83h4.13Z"/>
    <path class="cls-2" d="m53.68,148.11c5.16-.15,13.03-.26,18.4-.26.42-1.99,3.4-13.62,3.84-15.67h-20.46c1.27-5.98.92-3.57,2.27-9.9h20.66c.62-2.9,2.11-11.58,2.7-14.34h21.06c-.5,2.75-2.17,11.57-2.64,14.07,6.95,0,14.58.02,21.97.02-1.31,6.16-.93,3.62-2.25,9.8-7.04,0-14.51.06-22.06.06-.59,2.11-3.28,13.72-3.9,15.94h19.24c-1.14,5.39-.29,2.9-1.43,8.25h-58.81"/>
    <path class="cls-2" d="m98.87,208.42h-20.22c.16-1.45.3-2.8.47-4.33h-16.36c-.43,1.34-.86,2.68-1.23,3.84h-18.84c3.29-15.48,6.45-30.36,9.71-45.66h56.29c-1.67,7.84-4.89,23.02-9.81,46.15Zm-33.88-13.54h15.47c.72-3.37,4.8-20.79,5.51-24.11h-15.47c-.72,3.39-4.8,20.78-5.51,24.11Z"/>
    <path class="cls-2" d="m38.02,171.76h9.13c-1.43,9.2-2.85,18.32-4.31,27.69h-9.47c1.55-9.23,3.07-18.31,4.64-27.69Z"/>
  </g>
  <path class="cls-2" d="m252.85,174c-.19.6-.39,1.21-.59,1.81-4.96,14.99-10.96,29.58-17.14,44.11-3.17,7.44-7.26,14.4-12.09,20.9-4.84,6.52-10.76,11.84-17.76,16.02-5.52,3.3-11.36,5.4-17.82,5.5-5.53.09-10.48-1.51-14.65-5.23-2.59-2.31-4.51-5.12-6.15-8.14-3.18-5.88-5.28-12.18-6.98-18.62-1.47-5.58-2.07-12.8-3.09-18.46-4.78,0-8.3.08-13.33.08,1.35-6.37,2.34-10.6,3.84-17.67-3.15,1.57-6.87,3.22-9.93,4.74.19,7.94.19,15.45.39,16.65.12.73,1.69,10.66,2.65,15.96,1.15,6.37,2.85,12.57,5.59,18.47,3.36,7.21,7.58,13.85,13.05,19.64,8.18,8.66,18.29,12.62,30.22,11.89,6-.37,11.7-2.12,17.26-4.33.35-.14.66-.4,1.27-.3-3.28,7.75-6.8,15.35-10.14,23.01,1.61.62,22.31,3.48,23.62,3.27.06-.08.13-.15.17-.23,3.34-7.39,6.68-14.78,10.03-22.16,1.57-3.47,3.16-6.94,4.74-10.41.41-.9.93-1.68,1.92-2.07.95-.37,1.86-.84,2.82-1.14,1.35-.43,2.18-1.3,2.78-2.55,2-4.13,4.06-8.23,6.09-12.34.26-.52.53-1.03.59-1.64-.1-.83-.5-1.56-.93-2.24-.8-1.27-.75-2.49-.19-3.84,1.38-3.34,2.62-6.75,4.03-10.08,2.49-5.86,5.15-11.66,7.6-17.54,5.83-14.02,10.57-28.41,14.58-43.03h-22.46Z"/>
</svg>