<?xml version="1.0" encoding="UTF-8"?>
<svg id="_레이어_1" data-name="레이어 1" xmlns="http://www.w3.org/2000/svg" viewBox="0 0 409.64 303.29">
  <defs>
    <style>
      .cls-1, .cls-2 {
        fill: #040000;
      }

      .cls-2 {
        fill-rule: evenodd;
      }
    </style>
  </defs>
  <polygon class="cls-1" points="65.68 159.97 68.88 145.02 50.55 145.02 52.03 138.06 70.35 138.06 73.26 124.37 58.58 124.37 39.63 157.94 16.45 157.94 41.18 115.32 0 115.32 1.53 108.14 65.23 108.14 63.71 115.32 62.49 117.42 74.74 117.42 77.09 106.38 98.95 106.38 87.54 159.97 65.68 159.97"/>
  <polygon class="cls-1" points="12.94 208.16 17.39 186.65 71.2 186.65 72.6 180.27 19.23 180.27 20.71 173.31 96.16 173.31 91.85 193.39 38.04 193.39 36.6 200.76 91.29 200.76 89.72 208.16 12.94 208.16"/>
  <polygon class="cls-1" points="64.2 167 65.72 159.84 137.65 159.84 142.36 137.71 164.49 137.71 159.78 159.84 208.16 159.84 206.64 167 64.2 167"/>
  <polygon class="cls-1" points="171.27 150.53 173.83 119.61 143.24 119.61 130.05 150.53 107.16 150.53 125.98 106.38 148.87 106.38 146.3 112.34 196.75 112.34 194.92 150.53 171.27 150.53"/>
  <polygon class="cls-1" points="164.67 208.16 173.33 180.36 109.11 180.36 110.61 173.31 196.75 173.31 186.58 208.16 164.67 208.16"/>
  <polygon class="cls-1" points="319.93 179.14 335.27 107 406.46 107 404.62 115.65 360.85 115.65 349.19 170.49 394.43 170.49 392.59 179.14 319.93 179.14"/>
  <polygon class="cls-1" points="286.05 179.14 294.49 139.44 286.9 139.44 278.46 179.14 259.91 179.14 275.24 107 293.79 107 288.39 132.39 295.99 132.39 301.38 107 319.93 107 304.6 179.14 286.05 179.14"/>
  <polygon class="cls-1" points="236.02 159.99 224.84 159.99 229.5 138.08 240.67 138.08 242.17 131.03 231 131.03 236.17 107 217.4 107 204.58 167.04 234.52 167.04 236.02 159.99"/>
  <polygon class="cls-1" points="315.58 197.1 313.28 207.93 407.34 207.93 409.64 197.1 315.58 197.1"/>
  <polygon class="cls-1" points="310.22 197.1 226.38 197.1 224.08 207.93 307.92 207.93 310.22 197.1"/>
  <path class="cls-2" d="m263.88,52.26c-1.49-7.19-3.83-14.12-6.27-21.02-1.89-5.35-4.58-10.27-7.91-14.86C241.29,4.77,229.88-.74,215.5.08c-7.92.45-15.4,2.68-22.52,6.26-6.99,3.52-13.16,8.09-18.79,13.48-14.88,14.25-26.14,30.98-34.48,49.7-4.44,9.98-7.95,20.3-11.12,30.74-.23.76-.46,1.53-.69,2.29h15.62c.81-2.79,1.67-5.57,2.61-8.33,2.11-6.22,4.45-12.34,7.17-18.32,4.55-10.01,9.98-19.51,16.66-28.28,5.74-7.54,12.2-14.38,19.95-19.9,6.28-4.47,13.14-7.61,20.88-8.56,6.67-.82,12.47,1.02,17.17,5.85,5.15,5.29,8.39,11.72,10.77,18.6.94,2.72,1.68,5.52,2.35,8.33,1.14,4.78,2.1,9.59,2.7,14.47.89,7.33,1.06,14.69.94,22.06-.22,13.94-1.6,27.78-3.58,41.58-1.82,12.72-3.69,22.93-7.72,37.01h22.19c6.69-26.34,10.47-53.11,11.17-80.31.3-11.6-.55-23.09-2.89-34.47Z"/>
  <path class="cls-2" d="m231.32,174c-.19.6-.39,1.21-.59,1.81-4.96,14.99-10.96,29.58-17.14,44.11-3.17,7.44-7.26,14.4-12.09,20.9-4.84,6.52-10.76,11.84-17.76,16.02-5.52,3.3-11.36,5.4-17.82,5.5-5.53.09-10.48-1.51-14.65-5.23-2.59-2.31-4.51-5.12-6.15-8.14-3.18-5.88-5.28-12.18-6.98-18.62-1.57-5.97-2.48-12.07-3.59-18.13-.18-.97-1.28-19.48-1.91-26.42h-17.36c-.71,7.42.41,27.95.73,29.89.12.73,1.69,10.66,2.65,15.96,1.15,6.37,2.85,12.57,5.59,18.47,3.36,7.21,7.58,13.85,13.05,19.64,8.18,8.66,18.29,12.62,30.22,11.89,6-.37,11.7-2.12,17.26-4.33.35-.14.66-.4,1.27-.3-3.28,7.75-6.8,15.35-10.14,23.01,1.61.62,22.31,3.48,23.62,3.27.06-.08.13-.15.17-.23,3.34-7.39,6.68-14.78,10.03-22.16,1.57-3.47,3.16-6.94,4.74-10.41.41-.9.93-1.68,1.92-2.07.95-.37,1.86-.84,2.82-1.14,1.35-.43,2.18-1.3,2.78-2.55,2-4.13,4.06-8.23,6.09-12.34.26-.52.53-1.03.59-1.64-.1-.83-.5-1.56-.93-2.24-.8-1.27-.75-2.49-.19-3.84,1.38-3.34,2.62-6.75,4.03-10.08,2.49-5.86,5.15-11.66,7.6-17.54,5.83-14.02,10.57-28.41,14.58-43.03h-22.46Z"/>
</svg>